<?xml version="1.0" standalone="no"?>
<!DOCTYPE svg PUBLIC "-//W3C//DTD SVG 20010904//EN"
 "http://www.w3.org/TR/2001/REC-SVG-20010904/DTD/svg10.dtd">
<svg version="1.0" xmlns="http://www.w3.org/2000/svg"
 width="512.000000pt" height="512.000000pt" viewBox="0 0 512.000000 512.000000"
 preserveAspectRatio="xMidYMid meet">
<g transform="translate(0.000000,512.000000) scale(0.100000,-0.100000)"
fill="#000000" stroke="none">
<path d="M2390 4974 c-19 -2 -78 -9 -130 -15 -186 -21 -379 -70 -565 -141
-129 -50 -134 -52 -105 -34 14 8 21 15 15 15 -14 0 -62 -28 -50 -29 6 0 2 -5
-8 -11 -9 -5 -22 -7 -29 -3 -7 5 -8 3 -3 -6 6 -10 4 -12 -9 -7 -11 5 -15 3
-10 -5 5 -8 2 -9 -10 -5 -9 4 -15 3 -12 -2 3 -4 -6 -13 -20 -20 -17 -7 -23 -8
-19 0 4 6 -16 -1 -44 -16 -32 -16 -49 -30 -45 -37 5 -7 3 -8 -5 -4 -14 9 -140
-71 -271 -172 -107 -83 -350 -320 -344 -336 3 -7 -8 -23 -23 -36 l-28 -25 25
30 25 30 -27 -24 c-15 -13 -24 -29 -22 -35 3 -7 -6 -21 -18 -32 l-23 -19 20
25 20 25 -22 -18 c-12 -11 -19 -24 -17 -31 3 -7 -3 -19 -13 -27 -17 -13 -17
-13 -3 6 14 18 14 19 -2 7 -9 -8 -15 -19 -12 -25 2 -7 -8 -25 -22 -42 -14 -16
-23 -24 -19 -17 12 23 -3 12 -21 -15 -17 -27 -17 -28 1 -13 18 15 18 14 1 -12
-17 -26 -35 -41 -20 -16 4 7 3 8 -5 4 -6 -4 -9 -11 -6 -16 8 -13 -14 -52 -25
-45 -6 3 -7 0 -4 -8 3 -8 0 -18 -7 -23 -8 -5 -10 -3 -4 6 5 8 4 11 -3 6 -6 -4
-8 -14 -5 -23 4 -9 2 -14 -3 -10 -6 3 -18 -8 -28 -26 l-18 -32 22 25 21 25
-16 -33 c-9 -18 -20 -30 -25 -27 -6 4 -7 -1 -3 -11 4 -12 3 -15 -5 -10 -8 5
-10 1 -5 -10 4 -12 3 -15 -5 -10 -8 5 -10 1 -5 -10 4 -12 3 -15 -5 -10 -8 5
-10 1 -5 -10 4 -12 3 -15 -5 -10 -8 5 -10 1 -5 -10 4 -12 3 -15 -5 -10 -8 5
-10 1 -5 -10 5 -13 3 -15 -7 -9 -9 6 -11 4 -6 -4 5 -7 -4 -39 -19 -73 -71
-158 -143 -416 -171 -617 -18 -123 -24 -405 -13 -571 4 -52 3 -79 -1 -60 l-7
35 -2 -33 c0 -19 5 -35 13 -38 8 -3 16 -27 20 -57 15 -127 99 -417 161 -555
15 -34 24 -66 19 -73 -4 -7 -3 -10 3 -6 6 4 15 -5 22 -19 6 -14 7 -23 1 -19
-6 3 -7 -1 -4 -9 3 -9 9 -14 14 -11 4 2 12 -7 19 -21 6 -14 7 -23 1 -19 -6 3
-7 -1 -4 -9 3 -9 10 -14 15 -11 11 8 41 -53 33 -67 -4 -7 -3 -8 4 -4 14 8 36
-30 26 -46 -4 -7 -3 -8 4 -4 12 7 36 -30 27 -44 -3 -5 0 -12 6 -16 8 -5 9 -3
4 6 -6 9 -4 11 4 6 7 -5 10 -14 7 -22 -3 -7 0 -16 6 -20 7 -5 8 -2 3 6 -6 9
-4 11 4 6 7 -5 10 -14 7 -22 -3 -7 0 -16 6 -20 7 -5 8 -2 4 7 -4 8 4 1 18 -16
14 -16 24 -35 22 -42 -3 -6 3 -17 12 -25 16 -12 16 -11 2 7 -14 19 -14 19 3 6
10 -8 16 -20 13 -27 -2 -7 5 -20 17 -31 l22 -18 -20 25 -20 25 23 -19 c12 -11
21 -25 18 -32 -2 -6 7 -22 22 -35 l27 -24 -25 30 -25 30 28 -25 c15 -13 25
-29 23 -36 -11 -30 438 -431 472 -422 5 2 10 -1 10 -6 0 -10 112 -86 127 -86
6 0 3 5 -5 11 -13 9 -13 10 0 6 8 -2 14 -9 13 -16 -2 -6 20 -22 48 -37 28 -14
48 -21 44 -15 -4 8 2 7 19 0 14 -7 23 -16 20 -20 -3 -5 3 -6 12 -2 12 4 15 3
10 -5 -5 -8 -1 -10 10 -5 13 5 15 3 9 -7 -5 -9 -4 -11 3 -6 7 4 20 2 29 -3 10
-6 14 -11 8 -11 -12 -1 36 -29 50 -29 6 0 -1 7 -15 15 -29 18 -24 16 105 -34
116 -45 290 -96 383 -112 40 -7 77 -19 83 -27 6 -7 21 -13 33 -12 20 0 21 1 1
9 -19 8 -19 9 1 9 12 1 24 -6 28 -14 3 -10 17 -15 38 -14 l33 2 -35 7 c-30 6
-31 8 -9 9 15 0 41 -2 60 -6 28 -5 30 -7 14 -14 -13 -5 -3 -7 30 -7 41 0 46 2
25 9 -18 6 -12 7 24 4 27 -3 72 -6 100 -7 l51 -1 -50 -7 c-38 -5 -25 -7 55 -7
80 0 93 2 55 7 l-50 7 55 2 c30 0 73 4 95 6 30 4 35 3 20 -4 -16 -7 -9 -10 30
-9 37 0 43 2 25 7 -23 7 -21 8 15 14 22 4 51 6 65 6 20 -1 18 -3 -10 -9 l-35
-7 33 -2 c21 -1 35 4 38 14 4 8 18 15 33 15 14 1 54 7 89 14 34 7 62 10 62 5
0 -5 7 -9 16 -9 8 0 13 4 10 9 -3 5 1 12 10 15 24 9 31 7 14 -4 -12 -8 -12
-10 -1 -10 8 0 19 6 25 14 6 8 53 26 104 41 51 15 132 42 180 62 112 44 122
48 92 29 -14 -8 -20 -15 -15 -15 14 0 62 28 50 29 -5 0 -2 5 8 11 9 5 22 7 29
3 7 -5 8 -3 3 6 -6 10 -4 12 9 7 11 -5 15 -3 10 5 -5 8 -2 9 10 5 9 -4 15 -3
12 2 -3 4 6 13 20 20 17 7 23 8 19 0 -4 -6 16 1 44 16 32 16 49 30 45 37 -5 7
-3 8 5 4 14 -9 140 71 271 172 107 83 350 320 344 336 -3 7 8 23 23 36 l28 25
-25 -30 -25 -30 27 24 c15 13 24 29 22 35 -3 7 6 21 18 32 l23 19 -20 -25 -20
-25 22 18 c12 11 19 24 17 31 -3 7 3 19 13 27 17 13 17 13 3 -6 -14 -18 -14
-19 2 -7 9 8 15 19 12 25 -2 7 8 26 22 42 14 17 22 24 18 16 -4 -9 -3 -12 4
-7 6 4 9 13 6 20 -3 8 0 17 7 22 8 5 10 3 4 -6 -5 -8 -4 -11 3 -6 6 4 9 13 6
20 -3 8 0 17 7 22 8 5 10 3 4 -6 -5 -9 -4 -11 4 -6 6 4 9 11 6 16 -9 14 15 51
27 44 7 -4 8 -3 4 4 -10 16 12 54 26 46 7 -4 8 -3 4 4 -9 15 22 75 34 67 6 -4
7 1 3 11 -4 12 -3 15 5 10 8 -5 10 -1 5 10 -4 12 -3 15 5 10 8 -5 10 -1 5 10
-4 12 -3 15 5 10 8 -5 10 -1 5 10 -4 12 -3 15 5 10 8 -5 10 -1 5 10 -4 12 -3
15 5 10 8 -5 10 -1 5 10 -4 12 -3 15 5 10 8 -4 10 -2 6 8 -3 8 3 31 14 53 63
124 149 428 179 632 23 159 23 503 0 662 -30 200 -90 420 -160 584 -16 38 -30
80 -31 92 0 11 -5 19 -10 15 -5 -3 -6 2 -3 12 5 11 3 15 -5 10 -8 -5 -9 -2 -5
10 5 11 3 15 -5 10 -8 -5 -9 -2 -5 10 5 11 3 15 -5 10 -8 -5 -9 -2 -5 10 5 11
3 15 -5 10 -8 -5 -9 -2 -5 10 5 11 3 15 -5 10 -8 -5 -9 -2 -5 10 4 10 3 15 -3
11 -12 -8 -43 52 -34 67 4 7 3 8 -4 4 -14 -8 -36 30 -26 46 4 7 3 8 -4 4 -12
-7 -36 30 -27 44 3 5 0 12 -6 16 -8 5 -9 3 -4 -6 6 -9 4 -11 -4 -6 -7 5 -10
14 -7 22 3 7 0 16 -6 20 -7 5 -8 2 -3 -6 6 -9 4 -11 -4 -6 -7 5 -10 14 -7 22
3 7 0 16 -6 20 -7 5 -8 2 -4 -7 4 -8 -4 0 -18 16 -14 17 -24 35 -22 42 3 6 -3
17 -12 25 -16 12 -16 11 -2 -7 14 -19 14 -19 -3 -6 -10 8 -16 20 -13 27 2 7
-5 20 -17 31 l-22 18 20 -25 20 -25 -23 19 c-12 11 -21 25 -18 32 2 6 -7 22
-22 35 l-27 24 25 -30 25 -30 -28 25 c-15 13 -26 29 -23 36 6 16 -237 253
-344 336 -131 101 -257 181 -271 172 -8 -4 -10 -3 -5 4 4 7 -13 21 -45 37 -28
15 -48 22 -44 16 4 -8 -2 -7 -19 0 -14 7 -23 16 -20 20 3 5 -3 6 -12 2 -12 -4
-15 -3 -10 5 5 8 1 10 -10 5 -13 -5 -15 -3 -9 7 5 9 4 11 -3 6 -7 -4 -20 -2
-29 3 -10 6 -13 11 -8 11 12 1 -36 29 -50 29 -5 0 1 -7 15 -15 30 -19 20 -15
-91 29 -164 66 -347 114 -544 143 -97 14 -434 26 -505 18z m95 -184 c-53 -5
-34 -6 75 -6 109 0 128 1 75 6 l-70 6 61 2 c83 3 165 -9 139 -19 -15 -5 -9 -8
20 -8 32 0 36 2 20 10 -30 13 60 1 205 -28 160 -32 364 -98 397 -129 14 -13
31 -24 36 -24 6 0 2 7 -9 15 -16 12 -12 12 21 -1 57 -23 195 -93 195 -99 0 -3
-40 15 -90 40 -49 25 -93 45 -97 44 -5 0 41 -25 100 -55 59 -30 112 -52 116
-50 4 3 17 -1 27 -10 18 -14 17 -14 -6 -4 -24 11 -24 10 -5 -5 11 -8 25 -13
32 -11 7 3 15 0 19 -6 4 -7 3 -8 -4 -4 -7 4 -12 5 -12 3 0 -10 142 -97 149
-92 5 2 15 -3 22 -13 13 -16 13 -16 -6 -2 -19 14 -19 14 -6 -3 8 -10 20 -16
27 -13 7 2 20 -5 31 -17 l18 -22 -25 20 -25 20 19 -23 c11 -12 25 -21 32 -18
6 2 22 -7 35 -22 l24 -27 -30 25 -30 25 25 -28 c13 -15 29 -26 36 -23 25 10
354 -350 340 -373 -4 -5 -1 -13 5 -17 8 -4 9 -3 5 4 -4 7 -5 12 -1 12 12 0 96
-141 90 -150 -4 -6 -1 -9 5 -8 16 4 141 -232 136 -255 -2 -9 0 -15 4 -12 5 3
17 -18 28 -47 33 -87 35 -96 17 -68 -12 18 -14 19 -10 5 4 -11 10 -28 13 -38
3 -13 7 -15 12 -7 9 14 64 -174 89 -305 33 -172 44 -326 38 -515 -5 -141 -10
-176 -22 -183 -8 -4 -14 -20 -14 -35 l1 -27 8 30 c19 74 8 -22 -15 -135 -37
-184 -126 -457 -145 -445 -4 3 -11 -2 -14 -11 -3 -8 -2 -12 4 -9 6 3 10 3 10
0 0 -16 -103 -205 -109 -201 -4 3 -13 -5 -21 -17 -12 -21 -12 -21 5 -7 17 14
18 14 6 -8 -7 -12 -17 -20 -23 -16 -7 4 -8 3 -4 -4 7 -11 -77 -152 -89 -152
-4 0 -3 5 1 12 4 7 3 8 -5 4 -6 -4 -9 -12 -5 -17 14 -23 -315 -383 -340 -373
-7 3 -23 -8 -36 -23 l-25 -28 30 25 30 25 -24 -27 c-13 -15 -29 -24 -35 -22
-7 3 -21 -6 -32 -18 l-19 -23 25 20 25 20 -18 -22 c-11 -12 -24 -19 -31 -17
-7 3 -19 -3 -27 -13 -13 -17 -13 -17 6 -3 19 14 19 14 6 -2 -7 -10 -17 -15
-22 -13 -7 5 -149 -82 -149 -92 0 -2 5 -1 12 3 7 4 8 3 4 -4 -4 -6 -12 -9 -19
-6 -7 2 -21 -3 -32 -11 -19 -15 -19 -16 5 -5 23 10 24 10 6 -4 -10 -9 -23 -13
-27 -10 -4 2 -57 -20 -116 -50 -59 -30 -105 -55 -100 -55 4 -1 48 19 97 44 50
25 90 43 90 40 0 -9 -156 -84 -262 -126 -139 -55 -306 -102 -463 -130 -111
-20 -164 -23 -365 -23 -201 0 -254 3 -365 23 -157 28 -324 75 -463 130 -106
42 -262 117 -262 126 0 3 41 -15 91 -41 50 -25 93 -44 95 -42 2 2 -44 27 -102
56 -58 29 -102 48 -99 42 4 -7 -7 -4 -24 4 -35 19 -43 32 -8 16 21 -11 21 -11
2 5 -11 8 -25 13 -32 11 -7 -3 -15 0 -19 6 -4 7 -3 8 4 4 7 -4 12 -5 12 -3 0
10 -142 97 -149 92 -5 -2 -15 3 -22 13 -13 16 -13 16 6 2 19 -14 19 -14 6 3
-8 10 -20 16 -27 13 -7 -2 -20 5 -31 17 l-18 22 25 -20 25 -20 -19 23 c-11 12
-25 21 -32 18 -6 -2 -22 7 -35 22 l-24 27 30 -25 30 -25 -25 28 c-13 15 -29
26 -36 23 -25 -10 -354 350 -340 373 4 5 1 13 -5 17 -8 4 -9 3 -5 -4 4 -7 5
-12 2 -12 -13 0 -98 139 -91 150 3 6 1 9 -5 8 -16 -4 -141 232 -136 255 2 9 0
15 -4 12 -11 -7 -63 131 -105 275 -96 333 -110 708 -40 1057 36 179 126 450
146 438 5 -4 6 1 3 9 -10 26 207 416 231 416 4 0 3 -5 -1 -12 -4 -7 -3 -8 5
-4 6 4 9 12 6 17 -4 5 15 37 42 71 69 91 282 308 297 302 6 -2 23 8 36 23 l25
28 -30 -25 -30 -25 24 27 c13 15 29 24 35 22 7 -3 21 6 32 18 l19 23 -25 -20
-25 -20 18 22 c11 12 24 19 31 17 7 -3 19 3 27 13 13 17 13 17 -6 3 -19 -14
-19 -14 -6 2 7 10 17 15 22 13 7 -5 149 82 149 92 0 2 -5 1 -12 -3 -7 -4 -8
-3 -4 4 4 6 12 9 19 6 7 -2 21 3 32 11 19 15 19 16 -5 5 -23 -10 -24 -10 -6 4
10 9 23 13 27 10 4 -2 57 20 116 50 59 30 105 55 100 55 -4 1 -48 -19 -97 -44
-50 -25 -90 -43 -90 -40 0 3 37 23 82 46 138 69 417 172 403 149 -4 -6 1 -10
10 -10 9 0 14 4 10 9 -6 11 1 16 38 25 19 4 26 3 22 -4 -3 -5 -2 -10 3 -10 6
0 12 6 15 14 3 7 25 16 49 20 23 4 54 9 68 12 20 4 22 3 10 -5 -13 -9 -12 -11
4 -11 10 0 24 7 30 15 13 16 147 33 266 32 l75 -1 -70 -6z"/>
<path d="M2328 4133 c-10 -2 -18 -9 -18 -14 0 -6 -6 -7 -12 -3 -7 4 -5 -2 5
-13 14 -16 17 -39 17 -119 0 -113 -27 -284 -42 -263 -6 9 -7 5 -2 -12 7 -33
-26 -145 -38 -127 -5 9 -8 9 -8 1 0 -6 -3 -20 -6 -30 -5 -15 -4 -15 5 -3 17
24 13 5 -15 -65 -14 -36 -30 -62 -35 -59 -5 3 -6 -1 -3 -9 8 -21 -64 -160 -78
-151 -7 4 -8 3 -4 -4 10 -16 -32 -94 -46 -86 -7 4 -8 3 -4 -4 9 -15 -12 -54
-24 -47 -6 3 -7 0 -4 -8 3 -8 0 -18 -7 -23 -8 -5 -10 -3 -4 6 5 8 4 11 -3 6
-6 -4 -9 -12 -7 -19 3 -7 -5 -23 -16 -37 -11 -14 -18 -19 -14 -12 12 23 -3 12
-21 -15 -17 -27 -17 -28 1 -13 10 8 0 -13 -24 -47 -23 -35 -44 -63 -47 -63 -3
0 -2 5 2 12 4 7 3 8 -4 4 -6 -4 -9 -13 -6 -20 3 -7 -3 -19 -13 -27 -17 -13
-17 -13 -3 6 14 18 14 19 -2 7 -9 -8 -15 -19 -12 -26 3 -7 -3 -19 -13 -27 -17
-13 -17 -13 -3 6 14 19 14 19 -2 6 -10 -7 -15 -17 -12 -22 3 -5 -13 -32 -35
-60 l-40 -50 -5 43 c-20 171 -29 219 -56 299 -17 50 -27 95 -24 101 5 7 2 8
-6 3 -10 -6 -12 -4 -7 9 4 11 3 15 -4 11 -6 -4 -13 2 -16 14 -10 39 -20 22
-32 -55 -20 -119 -84 -290 -104 -277 -6 4 -7 1 -2 -6 10 -17 -35 -112 -48
-104 -6 4 -7 1 -2 -7 9 -15 -54 -152 -67 -144 -4 3 -5 -3 -1 -12 4 -12 3 -15
-5 -10 -8 5 -10 1 -5 -10 5 -13 3 -15 -7 -9 -9 5 -11 4 -6 -4 8 -13 -53 -163
-63 -157 -3 2 -7 -6 -7 -17 -1 -12 -14 -67 -29 -122 -47 -173 -46 -401 2 -555
4 -13 4 -13 -7 0 -9 12 -10 10 -4 -10 9 -36 27 -62 19 -30 -5 22 -4 23 5 7 7
-10 9 -25 6 -33 -4 -10 -2 -12 6 -8 8 5 9 2 5 -10 -5 -11 -3 -15 5 -10 8 5 9
2 5 -10 -5 -11 -3 -15 5 -10 7 5 9 2 5 -8 -3 -9 1 -24 9 -35 14 -17 14 -16 4
7 -11 24 -10 24 5 5 8 -11 13 -25 11 -32 -3 -7 0 -15 6 -19 7 -5 8 -2 3 6 -6
9 -4 11 4 6 7 -5 10 -14 8 -20 -3 -7 6 -26 20 -42 l25 -29 -22 35 -22 35 31
-35 c17 -19 29 -40 26 -47 -9 -26 291 -283 314 -269 5 4 13 1 17 -5 4 -8 3 -9
-4 -5 -7 4 -12 5 -12 1 0 -3 47 -37 105 -75 68 -45 111 -67 122 -63 12 5 14 3
8 -7 -5 -9 -4 -11 3 -6 6 4 10 24 9 45 -1 22 -5 37 -9 35 -8 -5 -39 77 -65
167 -12 46 -17 101 -18 194 0 116 3 138 28 211 26 75 104 226 129 249 8 7 9 6
3 -4 -5 -9 -4 -12 3 -7 6 4 9 13 6 20 -3 8 0 17 7 22 8 5 10 3 4 -6 -5 -9 -4
-11 4 -6 6 4 9 11 6 16 -9 14 15 51 27 44 7 -4 8 -3 4 4 -9 15 12 54 24 47 6
-4 7 1 3 11 -4 12 -3 15 5 10 8 -5 10 -1 5 10 -4 12 -3 15 5 10 8 -5 10 -1 5
10 -4 12 -3 15 5 10 8 -5 10 -1 5 10 -4 12 -3 15 5 10 8 -5 10 -1 5 10 -4 12
-3 15 5 10 8 -4 10 -2 6 8 -3 8 2 28 11 45 9 18 29 71 45 119 16 48 29 79 29
69 1 -10 6 -15 11 -12 7 4 7 12 0 25 -5 10 -10 25 -10 32 0 19 47 -85 65 -144
8 -29 14 -61 14 -72 -1 -15 -4 -12 -9 9 l-8 30 -1 -28 c-1 -16 5 -30 14 -33
11 -5 15 -24 15 -79 0 -41 -4 -85 -10 -100 -9 -23 -8 -24 8 -16 9 5 20 8 24 8
3 -1 10 2 15 7 5 5 3 6 -4 2 -21 -12 -15 1 24 56 46 66 59 80 44 48 -11 -23
-11 -24 3 -6 9 10 13 23 10 27 -2 5 8 34 24 66 75 148 111 300 121 502 5 121
7 132 21 116 9 -11 10 -16 3 -11 -10 5 -13 -12 -11 -76 l2 -83 3 72 c3 46 8
73 17 76 17 7 169 -132 162 -148 -2 -7 7 -23 22 -36 l27 -24 -25 30 -25 30 33
-30 c18 -16 30 -35 28 -41 -3 -7 3 -18 12 -26 16 -12 16 -11 3 7 l-15 20 21
-20 c34 -32 134 -198 128 -213 -2 -7 -1 -11 4 -8 8 6 39 -57 81 -164 27 -68
80 -274 79 -303 -1 -20 -2 -20 -9 3 -7 23 -8 24 -9 3 -1 -12 6 -26 15 -31 14
-8 17 -35 21 -163 7 -190 -12 -323 -67 -491 -38 -113 -79 -209 -65 -148 5 19
4 22 -4 10 -15 -21 -14 -28 8 -39 35 -19 297 162 469 324 45 42 79 82 76 88
-2 7 10 26 28 42 l33 30 -30 -35 -30 -35 32 29 c17 15 29 34 27 41 -3 6 3 18
13 26 17 13 17 13 3 -6 -14 -18 -14 -19 2 -7 9 8 15 19 12 26 -3 7 3 19 13 27
17 13 17 13 3 -6 -14 -18 -14 -19 2 -7 9 8 15 19 12 27 -3 7 0 16 7 21 8 5 10
3 4 -6 -5 -9 -4 -11 4 -6 6 4 9 11 6 16 -9 14 15 51 27 44 6 -4 8 -3 5 3 -4 6
13 53 38 105 24 52 57 139 72 194 26 92 28 113 28 284 0 144 -4 204 -19 270
-29 132 -71 254 -136 389 -33 68 -58 126 -55 131 2 4 -2 16 -11 26 -14 18 -15
18 -4 -3 19 -39 3 -25 -25 22 -14 25 -23 49 -20 54 3 5 0 13 -6 17 -8 5 -9 3
-4 -6 6 -9 4 -11 -4 -6 -7 5 -10 14 -7 22 3 7 0 16 -6 20 -7 5 -8 2 -3 -6 6
-9 4 -11 -4 -6 -7 5 -10 14 -7 22 3 7 0 16 -6 20 -7 5 -8 2 -3 -6 6 -9 4 -11
-4 -6 -7 5 -10 14 -7 21 3 8 -3 19 -12 27 -16 12 -16 11 -2 -7 14 -19 14 -19
-3 -6 -10 8 -16 20 -13 27 3 7 -3 18 -12 26 -16 12 -16 11 -2 -7 14 -19 14
-19 -3 -6 -10 8 -16 20 -13 27 3 7 -3 18 -12 26 -16 12 -16 11 -2 -7 14 -19
14 -19 -3 -6 -10 8 -16 20 -13 27 2 6 -7 22 -22 35 l-27 24 25 -30 25 -30 -33
30 c-18 16 -31 34 -28 41 2 6 -32 47 -77 90 l-82 79 75 -80 75 -81 -81 81
c-62 61 -84 77 -93 68 -6 -7 -11 -18 -11 -25 0 -10 2 -10 9 0 5 9 14 -8 27
-50 27 -91 25 -272 -3 -348 -11 -30 -26 -54 -33 -52 -6 1 -9 -2 -5 -7 6 -11
-22 -61 -34 -61 -4 0 -17 35 -30 78 -12 42 -38 116 -57 165 -19 48 -32 92 -28
99 5 7 3 8 -6 3 -10 -6 -12 -4 -7 9 5 11 3 15 -5 10 -8 -5 -9 -2 -5 10 5 11 3
15 -5 10 -8 -5 -9 -2 -5 10 5 11 3 15 -5 10 -8 -5 -9 -2 -5 10 5 11 3 15 -5
10 -8 -5 -9 -2 -5 10 5 11 3 15 -4 10 -7 -4 -10 -1 -7 7 5 14 -17 69 -28 69
-2 0 2 -13 11 -30 9 -16 13 -30 10 -30 -9 0 -46 81 -40 90 3 5 0 12 -6 16 -8
4 -9 3 -5 -4 4 -7 5 -12 3 -12 -10 0 -77 111 -72 119 2 5 -3 15 -13 22 -16 13
-16 13 -2 -6 14 -19 14 -19 -3 -6 -10 8 -16 20 -13 27 2 7 -5 20 -17 31 l-22
18 20 -25 20 -25 -23 19 c-12 11 -21 25 -18 32 8 20 -162 192 -251 256 -89 64
-180 118 -169 100 6 -9 1 -9 -18 -1 -14 7 -23 16 -20 20 3 5 -3 6 -12 2 -12
-4 -15 -3 -10 5 4 7 6 11 4 11 -2 -1 -11 -3 -20 -6z"/>
</g>
</svg>
